# xmcd
# 
# Track frame offsets:
#     150
#     34991
#     79095
#     107298
#     140210
#     165414
#     195889
#     227731
#     252818
#     277456
# 
# Disc length: 4175
# 
# Revision: 0
# Processed by: cddbd v1.5.2PL0 Copyright (c) Steve Scherf et al.
# Submitted via: fre:ac v1.0.27
# 
DISCID=83104d0a
DTITLE=Charlotte Link - Im Tal des Fuchses
DYEAR=2012
DGENRE=Hörbuch
TTITLE0=201 Im Tal des Fuchses
TTITLE1=202 Im Tal des Fuchses
TTITLE2=203 Im Tal des Fuchses
TTITLE3=204 Im Tal des Fuchses
TTITLE4=205 Im Tal des Fuchses
TTITLE5=206 Im Tal des Fuchses
TTITLE6=207 Im Tal des Fuchses
TTITLE7=208 Im Tal des Fuchses
TTITLE8=209 Im Tal des Fuchses
TTITLE9=210 Im Tal des Fuchses
EXTD=
EXTT0=
EXTT1=
EXTT2=
EXTT3=
EXTT4=
EXTT5=
EXTT6=
EXTT7=
EXTT8=
EXTT9=
PLAYORDER=
